{"title":"The Treasure of the Sierra Madre(1948)MP-4[DaScubaDude]","uid":12400639,"size":1544293491,"categoryP":"video","categoryS":"movies","magnet":"?xt=urn:btih:54102a4d8c86695434d9b901a831f7b200bf8f8a&amp;dn=The+Treasure+of+the+Sierra+Madre%281948%29MP-4%5BDaScubaDude%5D&amp;tr=udp%3A%2F%2Ftracker.openbittorrent.com%3A80&amp;tr=udp%3A%2F%2Fopen.demonii.com%3A1337&amp;tr=udp%3A%2F%2Ftracker.coppersurfer.tk%3A6969&amp;tr=udp%3A%2F%2Fexodus.desync.com%3A6969","seeders":5,"leechers":0,"uploader":"dascuba","files":1,"time":1442016904,"description":"The Treasure of the Sierra Madre (1948)\nNot Rated  |  126 min  |  Action, Adventure, Drama  |  24 January 1948 (USA)\n8.3 Your rating:   -/10   Ratings: 8.3/10 from 71,928 users   \nReviews: 208 user | 103 critic\nFred Dobbs and Bob Curtin, two Americans searching for work in Mexico, convince an old prospector to help them mine for gold in the Sierra Madre Mountains.\n\nDirector: John Huston\nWriters: John Huston (screenplay), B. Traven (based on the novel by)\nStars: Humphrey Bogart, Walter Huston, Tim Holt\n\nGeneral\nComplete name:Treasure of the Sierra MadreTREASURE_OF_THE_SIERRA_MADRE_Title1.mp4\nFormat                                   : MPEG-4\nFormat profile                           : Base Media\nCodec ID                                 : isom\nFile size                                : 1.44 GiB\nDuration                                 : 2h 6mn\nOverall bit rate mode                    : Constant\nOverall bit rate                         : 1 634 Kbps\nMovie name                               : TREASURE_OF_THE_SIERRA_MADRE\nGenre                                    : Classic_Adventure\nWriting application                      : Lavf54.6.100\n\nVideo\nID                                       : 1\nFormat                                   : MPEG-4 Visual\nFormat settings, BVOP                    : No\nFormat settings, QPel                    : No\nFormat settings, GMC                     : No warppoints\nFormat settings, Matrix                  : Default (H.263)\nCodec ID                                 : 20\nDuration                                 : 2h 6mn\nBit rate mode                            : Constant\nBit rate                                 : 1 500 Kbps\nWidth                                    : 720 pixels\nHeight                                   : 540 pixels\nDisplay aspect ratio                     : 4:3\nFrame rate mode                          : Constant\nFrame rate                               : 29.970 fps\nColor space                              : YUV\nChroma subsampling                       : 4:2:0\nBit depth                                : 8 bits\nScan type                                : Progressive\nCompression mode                         : Lossy\nBits/(Pixel*Frame)                       : 0.129\nStream size                              : 1.32 GiB (92%)\nWriting library                          : Lavc54.23.100\n\nAudio\nID                                       : 2\nFormat                                   : MPEG Audio\nFormat version                           : Version 1\nFormat profile                           : Layer 3\nCodec ID                                 : 6B\nDuration                                 : 2h 6mn\nBit rate mode                            : Constant\nBit rate                                 : 128 Kbps\nChannel(s)                               : 2 channels\nChannel(s)_Original                      : 1 channel\nSampling rate                            : 44.1 KHz\nCompression mode                         : Lossy\nStream size                              : 115 MiB (8%)\nWriting library                          : LAME3.99.5","torrent":{"xt":"urn:btih:54102a4d8c86695434d9b901a831f7b200bf8f8a","amp;dn":"The+Treasure+of+the+Sierra+Madre%281948%29MP-4%5BDaScubaDude%5D","amp;tr":["udp%3A%2F%2Ftracker.openbittorrent.com%3A80","udp%3A%2F%2Fopen.demonii.com%3A1337","udp%3A%2F%2Ftracker.coppersurfer.tk%3A6969","udp%3A%2F%2Fexodus.desync.com%3A6969"],"infoHash":"54102a4d8c86695434d9b901a831f7b200bf8f8a","infoHashBuffer":{"type":"Buffer","data":[84,16,42,77,140,134,105,84,52,217,185,1,168,49,247,178,0,191,143,138]},"announce":[],"urlList":[]}}